<?xml version="1.0" encoding="UTF-8" standalone="no"?>
<!-- Created with Inkscape (http://www.inkscape.org/) -->

<svg
   width="210mm"
   height="297mm"
   viewBox="0 0 210 297"
   version="1.1"
   id="svg1"
   sodipodi:docname="line2.svg"
   inkscape:version="1.3.2 (091e20e, 2023-11-25, custom)"
   xmlns:inkscape="http://www.inkscape.org/namespaces/inkscape"
   xmlns:sodipodi="http://sodipodi.sourceforge.net/DTD/sodipodi-0.dtd"
   xmlns="http://www.w3.org/2000/svg"
   xmlns:svg="http://www.w3.org/2000/svg">
  <sodipodi:namedview
     id="namedview1"
     pagecolor="#ffffff"
     bordercolor="#000000"
     borderopacity="0.25"
     inkscape:showpageshadow="2"
     inkscape:pageopacity="0.0"
     inkscape:pagecheckerboard="0"
     inkscape:deskcolor="#d1d1d1"
     inkscape:document-units="mm"
     inkscape:zoom="0.70110129"
     inkscape:cx="396.51902"
     inkscape:cy="333.04745"
     inkscape:window-width="1920"
     inkscape:window-height="1001"
     inkscape:window-x="-9"
     inkscape:window-y="-9"
     inkscape:window-maximized="1"
     inkscape:current-layer="layer1" />
  <defs
     id="defs1" />
  <g
     inkscape:label="Layer 1"
     inkscape:groupmode="layer"
     id="layer1">
    <circle
       id="path1"
       style="fill:#000000;stroke:#000000;stroke-width:0.264583"
       cx="149.44347"
       cy="126.42313"
       r="0.050266977" />
    <path
       style="fill:#000000;stroke-width:0.264583"
       id="path2"
       d="m 12.15045,14.370848 c 4.004451,-0.128307 8.008534,-0.04001 12.013055,0.01509 7.787853,0.172222 15.592821,-0.146575 23.373661,0.310841 1.337495,0.07863 2.671196,0.212151 4.006794,0.318227 4.011523,0.271063 7.963921,1.048756 11.964633,1.411982 2.74824,0.249513 4.34177,0.2967 7.148925,0.435124 11.216523,0.398868 22.443493,0.269922 33.665122,0.313998 5.47358,0.217775 10.99416,-0.205792 16.45882,0.304903 0.57364,0.05361 2.07481,0.703145 1.70908,0.257969 -0.63779,-0.776314 -1.77378,-0.944163 -2.66067,-1.416244 -0.0382,0.122759 -0.0293,0.272081 -0.11463,0.368278 -0.87052,0.981733 -3.293,2.331973 -4.35926,2.998282 -4.3575,2.723032 -0.34229,0.187107 -4.73338,2.971551 -3.81683,2.438258 -7.4279,5.186109 -11.073643,7.870842 -0.872903,0.618611 -1.954919,1.376002 -2.824144,2.024986 -0.320614,0.239379 -0.670198,0.447788 -0.949764,0.734038 -0.164042,0.167961 -0.533572,0.449025 -0.358977,0.605984 3.032125,2.725822 2.805721,2.461487 5.479948,2.779238 4.70244,0.395926 9.42628,0.187892 14.13776,0.321562 1.1914,0.0338 2.38166,0.100295 3.57249,0.150442 5.88301,0.315955 11.76525,0.653134 17.65445,0.82963 6.19559,0.09954 12.39252,0.05224 18.58873,0.06668 2.79522,0.05129 5.59442,-0.04892 8.38858,0.0766 2.14731,0.09646 4.28253,0.334491 6.41348,0.603075 4.34692,0.539734 8.72749,0.772271 13.10539,0.690137 3.6162,-0.19853 7.2075,-0.660421 10.80025,-1.094071 0,0 -3.07859,-2.180127 -3.07859,-2.180127 v 0 c -3.56313,0.439224 -7.12066,0.967298 -10.7133,1.106744 -4.38901,0.03498 -8.77656,-0.21141 -13.13199,-0.770958 -2.11967,-0.239967 -4.24279,-0.453581 -6.37627,-0.528598 -2.76775,-0.09732 -5.53861,0.02193 -8.30678,-0.0094 -6.22929,0.008 -12.45921,-0.0067 -18.68715,-0.150908 -5.84582,-0.154876 -11.68711,-0.419142 -17.52606,-0.741936 -1.1968,-0.05059 -2.39306,-0.116057 -3.59039,-0.151771 -4.76266,-0.142057 -9.54705,0.03295 -14.290264,-0.505404 -0.518673,-0.116462 -1.849982,-0.792297 -1.55602,-0.349385 0.571614,0.861258 1.588389,1.360662 2.521871,1.804644 0.164634,0.0783 0.09453,-0.366552 0.216083,-0.502423 0.260514,-0.291203 0.595921,-0.505764 0.902525,-0.747964 0.887555,-0.701119 1.855395,-1.395312 2.764415,-2.061104 3.62457,-2.682563 7.22762,-5.405374 10.98824,-7.893811 3.00133,-1.89298 1.74421,-1.123973 4.77332,-2.939694 0.97299,-0.583226 3.94921,-2.168551 4.67786,-3.108548 0.18682,-0.241 0.21514,-0.570652 0.3227,-0.855978 -1.33856,-0.753864 -2.60416,-1.65524 -4.01569,-2.261591 -0.46876,-0.20137 -4.13413,-0.235104 -4.14724,-0.235257 -4.52343,-0.05277 -9.04686,0.09153 -13.57032,0.0581 -11.307037,-0.004 -22.619525,-0.04 -33.918125,-0.520692 -3.144433,-0.187405 -4.18392,-0.214941 -7.230409,-0.521645 -3.95873,-0.398543 -7.885533,-1.096684 -11.863157,-1.319254 -1.322192,-0.09077 -2.642859,-0.207363 -3.96657,-0.272306 -4.022407,-0.197344 -5.253566,-0.129123 -9.37024,-0.163757 -4.718952,-0.0397 -9.437621,-0.121827 -14.154969,-0.251197 -4.093132,-0.11365 -8.186091,-0.140203 -12.2801641,-0.199812 z" />
  </g>
</svg>
