<?xml version="1.0" encoding="UTF-8" standalone="no"?>
<!-- Created with Inkscape (http://www.inkscape.org/) -->

<svg
   width="210mm"
   height="297mm"
   viewBox="0 0 210 297"
   version="1.1"
   id="svg1"
   sodipodi:docname="line.svg"
   inkscape:version="1.3.2 (091e20e, 2023-11-25, custom)"
   xmlns:inkscape="http://www.inkscape.org/namespaces/inkscape"
   xmlns:sodipodi="http://sodipodi.sourceforge.net/DTD/sodipodi-0.dtd"
   xmlns="http://www.w3.org/2000/svg"
   xmlns:svg="http://www.w3.org/2000/svg">
  <sodipodi:namedview
     id="namedview1"
     pagecolor="#ffffff"
     bordercolor="#000000"
     borderopacity="0.25"
     inkscape:showpageshadow="2"
     inkscape:pageopacity="0.0"
     inkscape:pagecheckerboard="0"
     inkscape:deskcolor="#d1d1d1"
     inkscape:document-units="mm"
     inkscape:zoom="0.70110129"
     inkscape:cx="333.76062"
     inkscape:cy="596.91803"
     inkscape:window-width="1920"
     inkscape:window-height="1001"
     inkscape:window-x="-9"
     inkscape:window-y="-9"
     inkscape:window-maximized="1"
     inkscape:current-layer="layer1" />
  <defs
     id="defs1" />
  <g
     inkscape:label="Layer 1"
     inkscape:groupmode="layer"
     id="layer1">
    <path
       style="fill:#000000;stroke-width:0.264583"
       id="path1"
       d="m 12.283394,88.319294 c 0.905504,3.359057 1.651308,6.757289 2.431485,10.146847 0.952402,4.765379 2.11196,9.478479 3.604774,14.103049 0.746263,2.43814 1.615386,4.84132 2.806084,7.10119 0.614197,1.16571 1.054937,1.83482 1.744734,2.94833 1.784227,2.56755 3.496434,5.18191 5.179108,7.81666 1.297274,2.01949 2.679002,3.98008 3.981802,5.99665 1.237689,1.98165 2.984551,3.58293 4.80363,5.02198 2.450057,1.63353 4.835739,3.3529 7.313009,4.94575 2.481688,1.73628 5.030123,3.36477 7.584614,4.99074 3.494223,2.23719 7.11957,4.25205 10.703624,6.33865 0.439674,0.25597 -1.738209,-1.04949 -1.336072,-0.73784 0.556858,0.43155 1.202851,0.73379 1.804278,1.10068 4.649066,2.84801 9.411293,5.50436 14.301081,7.91345 2.838212,1.29927 5.955215,1.80523 8.97064,2.53824 3.522467,0.83051 7.024886,1.76055 10.428221,2.99568 3.873524,1.54653 7.603384,3.42458 11.374904,5.19999 3.45493,1.73209 6.80867,3.6533 10.30066,5.31095 3.18414,1.38229 6.41439,2.66969 9.67196,3.86848 1.94812,0.76448 3.93003,1.46869 5.80067,2.4156 0.40263,0.2038 1.58144,0.86998 1.19074,0.64414 -0.65269,-0.37727 -1.31795,-0.73238 -1.97693,-1.09858 2.67265,1.58185 5.05673,3.57359 7.35309,5.64955 1.83478,1.64987 3.91258,2.99362 5.93041,4.40449 0.41221,0.26568 0.81369,0.54882 1.23665,0.79704 1.54474,0.90652 3.09208,1.80973 4.66504,2.66636 0.47248,0.25731 0.9778,0.44909 1.46694,0.6731 1.20124,0.55012 2.4041,1.0927 3.59474,1.66545 2.13764,1.11636 4.2916,2.19165 6.40388,3.3562 -0.68432,-0.37634 -1.32089,-0.85703 -2.05298,-1.12903 -0.48567,-0.18044 0.86847,0.56522 1.30142,0.8498 1.48653,0.97715 2.94306,1.98805 4.38742,3.02608 1.84407,1.306 3.68826,2.61187 5.51661,3.93984 1.72711,1.30094 3.19635,2.90058 4.59954,4.536 0.7843,1.07933 1.55097,2.14426 2.45321,3.12862 0.60973,0.72782 1.40726,1.32538 1.78462,2.22187 0.23978,0.56964 0.26776,0.9758 0.37035,1.5884 0.26262,1.28261 0.56071,2.58152 1.10304,3.78063 0.16706,0.36938 0.57149,1.07029 0.77495,1.43155 1.18302,1.63725 2.82717,2.84426 4.28365,4.21921 1.03863,0.98096 1.74346,2.22384 2.52118,3.40393 0.84794,1.28664 1.15476,1.68609 2.09667,3.00329 2.12416,2.79351 4.1795,5.6528 6.49924,8.29011 0.88743,0.90448 0.45975,0.47352 1.28185,1.29406 0,0 3.6005,1.48906 3.6005,1.48906 v 0 c -0.84344,-0.82678 -0.40255,-0.39776 -1.32351,-1.28623 -2.38625,-2.61203 -4.50745,-5.45649 -6.61647,-8.2928 -0.66101,-0.94198 -1.40221,-1.97436 -2.02956,-2.94967 -0.76575,-1.19046 -1.41803,-2.47339 -2.44167,-3.47541 -1.42955,-1.37703 -3.03857,-2.56595 -4.30704,-4.10588 -0.26772,-0.46482 -0.56943,-0.91114 -0.80914,-1.391 -0.57812,-1.15732 -0.87818,-2.43796 -1.14271,-3.69487 -0.0993,-0.8075 -0.17481,-1.69674 -0.60684,-2.41577 -0.36473,-0.60702 -1.01012,-1.02404 -1.42371,-1.59275 -0.41268,-0.45764 -0.89381,-0.88716 -1.26054,-1.38342 -0.41983,-0.5681 -0.74695,-1.21206 -1.22101,-1.7435 -1.40507,-1.66049 -2.89633,-3.27129 -4.59683,-4.63332 -1.82446,-1.33692 -3.67339,-2.64015 -5.52092,-3.94498 -3.29104,-2.35391 -6.63321,-4.63973 -10.20026,-6.56621 -2.1204,-1.16699 -4.2827,-2.24911 -6.4362,-3.3531 -1.18055,-0.55669 -2.37558,-1.08015 -3.55786,-1.63293 -0.48561,-0.22705 -1.82528,-1.07733 -1.45089,-0.69368 0.50224,0.51468 1.21661,0.76988 1.85267,1.1054 0.43015,0.22691 -0.82247,-0.51926 -1.2337,-0.77889 -2.0164,-1.40399 -4.07511,-2.76072 -5.94503,-4.35781 -2.299,-2.09068 -4.67673,-4.11138 -7.34452,-5.72383 -1.52197,-0.89254 -3.03507,-1.80036 -4.5659,-2.67762 -2.20424,-1.26317 -4.64376,-2.04727 -6.98885,-2.99421 -3.2339,-1.23046 -6.47687,-2.4509 -9.63026,-3.87809 -3.47777,-1.67965 -6.83132,-3.59422 -10.2948,-5.30259 -3.78088,-1.76957 -7.511522,-3.66626 -11.405694,-5.17853 -3.42682,-1.20654 -6.933051,-2.15173 -10.469927,-2.97845 -3.003172,-0.73765 -6.103012,-1.26307 -8.915453,-2.59971 -1.773455,-0.87256 -3.533823,-1.76058 -5.26655,-2.7125 -0.66921,-0.36765 -1.318733,-0.77166 -1.998557,-1.1193 -0.427489,-0.2186 1.647437,0.98692 1.240703,0.73177 -0.60507,-0.37957 -1.223907,-0.73675 -1.835859,-1.10512 -6.317226,-3.86715 -5.338577,-3.02703 -11.126758,-6.67613 -2.550925,-1.63253 -5.110708,-3.24602 -7.587533,-4.99086 -2.461477,-1.57669 -4.816914,-3.29635 -7.266035,-4.89096 -1.828467,-1.38524 -3.589454,-2.95829 -4.840335,-4.8984 -1.329915,-2.005 -2.671987,-4.00091 -4.005652,-6.00268 -1.693309,-2.64278 -3.433831,-5.25447 -5.224549,-7.83265 -0.663624,-1.04845 -1.178546,-1.82288 -1.770718,-2.91871 -1.216116,-2.25047 -2.127162,-4.64685 -2.89546,-7.08233 -1.50754,-4.60634 -2.706988,-9.29848 -3.601595,-14.06383 -0.745596,-3.347763 -1.489897,-6.695875 -2.249434,-10.040414 z" />
  </g>
</svg>
