<?xml version="1.0" encoding="UTF-8" standalone="no"?>
<!-- Created with Inkscape (http://www.inkscape.org/) -->

<svg
   width="210mm"
   height="297mm"
   viewBox="0 0 210 297"
   version="1.1"
   id="svg1"
   inkscape:version="1.3.2 (091e20e, 2023-11-25, custom)"
   sodipodi:docname="tree.svg"
   xmlns:inkscape="http://www.inkscape.org/namespaces/inkscape"
   xmlns:sodipodi="http://sodipodi.sourceforge.net/DTD/sodipodi-0.dtd"
   xmlns="http://www.w3.org/2000/svg"
   xmlns:svg="http://www.w3.org/2000/svg">
  <sodipodi:namedview
     id="namedview1"
     pagecolor="#ffffff"
     bordercolor="#000000"
     borderopacity="0.25"
     inkscape:showpageshadow="2"
     inkscape:pageopacity="0.0"
     inkscape:pagecheckerboard="0"
     inkscape:deskcolor="#d1d1d1"
     inkscape:document-units="mm"
     inkscape:zoom="0.70710678"
     inkscape:cx="-92.630988"
     inkscape:cy="395.27269"
     inkscape:window-width="1920"
     inkscape:window-height="1001"
     inkscape:window-x="-9"
     inkscape:window-y="-9"
     inkscape:window-maximized="1"
     inkscape:current-layer="layer1" />
  <defs
     id="defs1">
    <inkscape:path-effect
       effect="bspline"
       id="path-effect9"
       is_visible="true"
       lpeversion="1.3"
       weight="33.333333"
       steps="2"
       helper_size="0"
       apply_no_weight="true"
       apply_with_weight="true"
       only_selected="false"
       uniform="false" />
    <inkscape:path-effect
       effect="bspline"
       id="path-effect8"
       is_visible="true"
       lpeversion="1.3"
       weight="33.333333"
       steps="2"
       helper_size="0"
       apply_no_weight="true"
       apply_with_weight="true"
       only_selected="false"
       uniform="false" />
    <inkscape:path-effect
       effect="bspline"
       id="path-effect7"
       is_visible="true"
       lpeversion="1.3"
       weight="33.333333"
       steps="2"
       helper_size="0"
       apply_no_weight="true"
       apply_with_weight="true"
       only_selected="false"
       uniform="false" />
    <inkscape:path-effect
       effect="bspline"
       id="path-effect6"
       is_visible="true"
       lpeversion="1.3"
       weight="33.333333"
       steps="2"
       helper_size="0"
       apply_no_weight="true"
       apply_with_weight="true"
       only_selected="false"
       uniform="false" />
    <inkscape:path-effect
       effect="bspline"
       id="path-effect5"
       is_visible="true"
       lpeversion="1.3"
       weight="33.333333"
       steps="2"
       helper_size="0"
       apply_no_weight="true"
       apply_with_weight="true"
       only_selected="false"
       uniform="false" />
    <inkscape:path-effect
       effect="bspline"
       id="path-effect4"
       is_visible="true"
       lpeversion="1.3"
       weight="33.333333"
       steps="2"
       helper_size="0"
       apply_no_weight="true"
       apply_with_weight="true"
       only_selected="false"
       uniform="false" />
    <inkscape:path-effect
       effect="bspline"
       id="path-effect3"
       is_visible="true"
       lpeversion="1.3"
       weight="33.333333"
       steps="2"
       helper_size="0"
       apply_no_weight="true"
       apply_with_weight="true"
       only_selected="false"
       uniform="false" />
    <inkscape:path-effect
       effect="bspline"
       id="path-effect1"
       is_visible="true"
       lpeversion="1.3"
       weight="33.333333"
       steps="2"
       helper_size="0"
       apply_no_weight="true"
       apply_with_weight="true"
       only_selected="false"
       uniform="false" />
    <inkscape:path-effect
       effect="fillet_chamfer"
       id="path-effect2"
       is_visible="true"
       lpeversion="1"
       nodesatellites_param="F,0,0,1,0,0,0,1 @ F,0,0,1,0,0,0,1 @ F,0,0,1,0,0,0,1 @ F,0,0,1,0,0,0,1"
       radius="0"
       unit="px"
       method="auto"
       mode="F"
       chamfer_steps="1"
       flexible="false"
       use_knot_distance="true"
       apply_no_radius="true"
       apply_with_radius="true"
       only_selected="false"
       hide_knots="false" />
    <inkscape:path-effect
       effect="fillet_chamfer"
       id="path-effect19"
       is_visible="true"
       lpeversion="1"
       nodesatellites_param="F,0,0,1,0,0,0,1 @ F,0,0,1,0,0,0,1 @ F,0,0,1,0,0,0,1 @ F,0,0,1,0,0,0,1"
       radius="0"
       unit="px"
       method="auto"
       mode="F"
       chamfer_steps="1"
       flexible="false"
       use_knot_distance="true"
       apply_no_radius="true"
       apply_with_radius="true"
       only_selected="false"
       hide_knots="false" />
    <inkscape:path-effect
       effect="fillet_chamfer"
       id="path-effect18"
       is_visible="true"
       lpeversion="1"
       nodesatellites_param=""
       radius="0"
       unit="px"
       method="auto"
       mode="F"
       chamfer_steps="1"
       flexible="false"
       use_knot_distance="true"
       apply_no_radius="true"
       apply_with_radius="true"
       only_selected="false"
       hide_knots="false" />
    <clipPath
       clipPathUnits="userSpaceOnUse"
       id="clipPath282">
      <path
         id="path283"
         style="fill:#ff0000;fill-opacity:1;fill-rule:nonzero;stroke:none;stroke-width:0.264583"
         d="M 67.964328,61.504772 V 112.21227 H 131.54701 V 61.504772 Z m 31.845083,31.452346 c 0.07214,7.94e-4 0.144172,0.0045 0.216009,0.0026 0.14683,0.06083 0.30276,0.103658 0.4408,0.182417 0.12377,0.07062 0.29122,0.261377 0.38912,0.374139 0.16853,0.194011 0.31961,0.401691 0.47284,0.607714 0.43919,0.606573 0.8563,1.228495 1.28675,1.841233 0.18837,0.258003 0.37387,0.518519 0.56017,0.778245 0.0576,0.02864 0.11591,0.0759 0.17001,0.153995 0.0305,0.04405 0.061,0.08824 0.0915,0.132292 0.10244,0.157263 0.20219,0.316201 0.30231,0.474909 0.2812,-0.952934 1.07455,-1.537505 2.0469,-1.527556 0.98906,0.01011 2.1614,0.63419 3.16363,2.108398 0.81098,1.192887 1.62626,2.383576 2.43034,3.581166 0.58817,0.83605 1.14468,1.69445 1.74512,2.52181 0.23243,0.30666 0.43449,0.64358 0.70538,0.91829 0.30705,0.31047 0.63242,0.5979 0.93483,0.91313 2.79096,2.90926 1.0715,5.71735 -1.5074,5.05498 0.0652,0.0674 0.0799,0.13064 0.0703,0.18552 0.002,5.3e-4 0.003,-0.001 0.005,0.002 h 5.3e-4 c 5.3e-4,5e-5 10e-4,-4e-5 0.002,0 h 5.2e-4 c 0.007,-0.001 0.0141,-0.003 0.0212,-0.003 0.004,-2.1e-4 0.008,2.4e-4 0.0124,0.001 0.006,10e-4 0.012,-0.001 0.016,0.006 0.0276,0.002 0.0551,0.004 0.0827,0.006 0.0207,0.003 0.0311,0.003 0.0501,0.0109 0.006,0.002 0.0105,0.006 0.0165,0.009 0.0512,0.027 0.0194,0.0832 -0.0284,0.0507 -0.002,-0.001 -0.004,-0.003 -0.006,-0.004 -0.0123,-0.006 -0.0204,-0.006 -0.0336,-0.008 0,5.3e-4 -0.001,0.002 -0.001,0.002 0.0153,0.0115 0.0296,0.025 0.0413,0.0388 0.005,0.006 0.01,0.0131 0.015,0.0202 0.004,0.007 0.008,0.0126 0.0114,0.0196 0.008,0.0168 0.0112,0.0387 0.0114,0.0589 0.004,-0.001 0.007,-0.001 0.0108,-0.002 0.001,-2.2e-4 0.002,-1.6e-4 0.002,-5.2e-4 h 5.3e-4 c -1.7e-4,2.2e-4 3e-5,7.9e-4 -5.3e-4,0.001 -0.0361,0.0349 0.0758,0.0127 0.0403,0.0419 l -0.003,0.003 c 0.002,7.9e-4 0.001,0.003 0.003,0.004 0.01,0.005 0.0147,0.0138 0.015,0.0222 2e-4,0.004 5.3e-4,0.005 -0.002,0.009 -0.005,0.011 -0.0182,0.0204 -0.0408,0.0212 -0.002,4e-5 -0.003,-3e-5 -0.004,0 -0.01,0 -0.0196,0.001 -0.0295,0.002 -0.0141,0.002 -0.0286,0.004 -0.0424,0.007 -0.0127,0.003 -0.0252,0.006 -0.0382,0.007 -0.012,0.001 -0.0241,7.9e-4 -0.0362,0 -0.0112,0 -0.0224,-0.001 -0.0336,-0.003 -0.008,-0.001 -0.0163,-0.002 -0.0243,-0.002 -0.01,-3e-5 -0.02,10e-5 -0.03,0 -0.0105,-1.1e-4 -0.021,9e-5 -0.0315,-5.3e-4 -0.01,-10e-4 -0.0196,-0.002 -0.0295,-0.002 -0.007,0 -0.0129,2.6e-4 -0.0202,0.001 -0.007,10e-4 -0.0142,0.004 -0.0212,0.004 -0.002,-6e-5 -0.005,-1.8e-4 -0.007,-5.3e-4 -0.004,-2e-4 -0.006,-0.002 -0.0114,-10e-4 -0.003,-2.6e-4 -0.007,-2.6e-4 -0.0103,-0.001 -0.0124,-0.004 -0.0206,-0.012 -0.0269,-0.0222 -0.0101,-0.001 -0.0204,10e-4 -0.03,-0.004 -0.003,-0.001 -0.007,-0.002 -0.0103,-0.004 -0.007,-0.003 -0.009,-0.012 -0.014,-0.0176 -0.0314,-0.007 -0.0363,-0.0344 -0.016,-0.0486 2.6e-4,-0.001 8e-5,-0.003 5.3e-4,-0.004 -0.01,-1.3e-4 -0.0204,-5.3e-4 -0.0305,-5.3e-4 -0.005,0.001 -0.0111,0.003 -0.015,0.002 -0.005,10e-4 -0.0106,0.002 -0.0119,-0.002 -5.3e-4,-0.002 5.2e-4,-0.005 0,-0.007 -0.003,6e-5 -0.005,-6e-5 -0.008,0 l 5.3e-4,0.002 c -0.0581,0.001 -0.0616,-0.0574 -0.002,-0.0584 0.006,-1.2e-4 0.0123,-10e-5 0.0186,-5.3e-4 -0.0121,-0.005 -0.0176,-0.0148 -0.016,-0.0253 -0.008,-0.002 -0.0163,-0.002 -0.0243,-0.005 v 0.001 c -0.0307,-0.0106 -0.0318,-0.0295 -0.0217,-0.0429 -0.004,-0.0105 -0.004,-0.0304 -0.003,-0.0403 v -5.3e-4 c -0.006,-0.001 -0.0124,-2.6e-4 -0.0186,-0.003 v -5.3e-4 c -0.0393,-0.0107 -0.0427,-0.04 -0.0212,-0.0522 l -5.3e-4,-5.3e-4 c -0.0146,0.008 -0.0357,-10e-4 -0.0439,-0.0336 -10e-4,-0.004 -0.002,-0.007 -0.003,-0.0114 -2.6e-4,-0.001 -7.9e-4,-0.002 -10e-4,-0.003 -0.0226,-0.0234 -0.0426,-0.0456 -0.0512,-0.0687 -0.006,-0.006 -0.0125,-0.0116 -0.0186,-0.0171 -0.0129,-0.0128 -0.0246,-0.0261 -0.0351,-0.0408 -0.002,-5.3e-4 -0.002,-0.004 -0.004,-0.005 -0.008,-0.005 -0.0169,-0.0118 -0.0212,-0.0279 -0.001,-0.002 -0.001,-0.005 -0.002,-0.007 -10e-4,-0.005 0.004,-0.003 0.004,-0.006 -5.3e-4,-0.007 -1.5e-4,-0.0135 0.003,-0.0186 -0.0192,-0.008 -0.0381,-0.0157 -0.0584,-0.0279 -0.11194,-0.0671 -0.21013,-0.14999 -0.30386,-0.23824 -0.49122,-0.25901 -0.99745,-0.63819 -1.4981,-1.16685 -0.28154,-0.29728 -0.63346,-0.57134 -0.91157,-0.88832 -0.41349,-0.44863 -0.78115,-0.93432 -1.13017,-1.43453 -0.30255,-0.42164 -0.59737,-0.84887 -0.8909,-1.27692 -0.0733,-0.0559 -0.15116,-0.11117 -0.20877,-0.1695 -0.0613,-0.062 -0.20711,-0.14134 -0.15451,-0.21084 0.0171,-0.0226 0.0436,-0.036 0.0625,-0.0568 -0.21728,-0.31775 -0.43406,-0.63582 -0.65371,-0.95187 -0.7234,-1.07809 -1.45658,-2.14925 -2.18695,-3.22254 -0.26663,-0.0664 -0.55539,-0.2312 -0.83612,-0.54932 -0.0751,-0.0851 -0.16813,-0.15114 -0.24753,-0.23204 -0.15041,-0.15637 -0.29233,-0.32013 -0.43615,-0.48265 -0.32064,-0.374665 -0.62021,-0.765595 -0.90124,-1.170982 -0.45105,-0.625155 -0.896,-1.255485 -1.35082,-1.877922 -0.4093,-0.582946 -0.80807,-1.173351 -1.223701,-1.75183 -0.142806,0.335923 -0.287993,0.670684 -0.472323,0.98702 -0.376862,0.652177 -0.787641,1.283255 -1.212329,1.905309 -0.421963,0.627878 -0.840245,1.258816 -1.292426,1.865505 -0.361207,0.50139 -0.723956,1.00193 -1.056783,1.52291 -0.36817,0.56936 -0.742778,1.13588 -1.070221,1.73014 -0.08959,0.18047 -0.209976,0.37166 -0.208772,0.5798 v 0.001 c 0.0047,0.83067 -0.363114,1.29101 -0.775147,1.38286 -0.05451,0.10223 -0.115552,0.20592 -0.195853,0.31264 -0.646644,0.85937 -1.290741,1.72056 -1.949236,2.57091 -0.168431,0.21722 -0.335708,0.43542 -0.505396,0.65164 -0.141766,0.18064 -0.285695,0.3595 -0.428913,0.53898 -0.253805,0.31806 -0.519399,0.63143 -0.705382,0.99632 -0.241015,0.47285 -0.547757,0.7332 -0.844394,0.83458 0.151312,0.38289 -0.208995,0.67451 -0.70435,0.45785 -0.0016,0.009 -0.0043,0.0174 -0.0078,0.0253 -0.0053,0.012 -0.0168,0.0187 -0.02894,0.0233 -5.9e-5,0.001 -5.3e-4,0.002 -5.3e-4,0.004 0.0049,0.008 0.0071,0.0177 0.0057,0.0274 0.04206,0.0336 0.02903,0.0948 -0.05684,0.0925 -0.0042,-1e-4 -0.0083,-2.4e-4 -0.01241,-5.3e-4 -0.0131,0.006 -0.02982,0.01 -0.05013,0.01 -0.01127,0 -0.02246,-1.9e-4 -0.03359,-0.002 -0.0066,-0.001 -0.01333,-0.003 -0.02013,-0.003 h -0.03049 c -0.01278,0 -0.02545,1e-5 -0.03824,0 -0.01175,-1e-5 -0.02339,5e-5 -0.03514,0 -0.0097,-6e-5 -0.01976,-1.6e-4 -0.02946,-5.3e-4 -0.01003,0 -0.01998,-5.3e-4 -0.02997,-0.002 -0.0073,-0.001 -0.01439,-0.003 -0.0217,-0.002 -0.01061,-1.2e-4 -0.0209,0 -0.03152,-5.3e-4 -0.01074,-0.001 -0.02188,-0.002 -0.03256,-0.003 -0.0079,-0.001 -0.01566,-5.2e-4 -0.02376,-0.001 -0.01339,0 -0.02713,-2.7e-4 -0.04031,-0.003 -0.0317,-0.007 -0.05271,-0.0208 -0.06201,-0.0543 -5.29e-4,-0.004 -0.0016,-0.008 -0.0016,-0.0124 5.3e-4,-0.0302 0.01312,-0.0501 0.03824,-0.0656 0.0016,-7.9e-4 0.003,-0.002 0.0047,-0.003 -0.02238,-0.0342 -0.0063,-0.0811 0.06821,-0.0811 h 0.0078 c 0.0087,-0.008 0.0164,-0.0159 0.02687,-0.0217 0.0089,-0.005 0.0181,-0.0105 0.02739,-0.015 -0.0067,2.4e-4 -0.01574,0.003 -0.01601,-0.003 -5.29e-4,-0.0115 0.0019,-0.0194 0.0062,-0.0243 -9.3e-5,-0.002 -9.3e-5,-0.003 0,-0.005 1.61e-4,-0.003 0.0032,-0.002 0.0072,0 7.94e-4,-2.6e-4 0.0016,-7.9e-4 0.0026,-0.001 -0.0041,-0.006 -0.0026,-0.0169 0.0083,-0.0263 7.93e-4,-7.9e-4 0.0021,-2.6e-4 0.0031,-0.001 -0.05429,-0.03 -0.04583,-0.0868 0.0057,-0.10025 -0.38522,-0.33498 -0.277683,-0.75186 0.06615,-0.82889 -0.05933,-0.29595 -0.0098,-0.67276 0.210325,-1.10329 0.238678,-0.46674 0.569286,-0.87426 0.893485,-1.28261 0.664819,-0.83746 0.207997,-0.25425 0.919324,-1.17202 0.652923,-0.8432 1.291503,-1.69776 1.932699,-2.54972 0.191402,-0.25437 0.393801,-0.43179 0.592728,-0.54467 -1.01e-4,-0.005 -0.0026,-0.01 -0.0026,-0.0155 -0.0048,-0.37036 0.09553,-0.73163 0.23926,-1.07022 0.04761,-0.11217 0.104375,-0.21958 0.15658,-0.3297 0.356034,-0.6677 0.774894,-1.29981 1.185458,-1.93476 0.349912,-0.54762 0.730295,-1.074376 1.110009,-1.601447 0.440203,-0.590214 0.846794,-1.204 1.257287,-1.814878 0.400439,-0.587449 0.789387,-1.179838 1.144635,-1.795756 0.209627,-0.366567 0.360921,-0.76077 0.526582,-1.147734 0.115869,-0.271907 0.268091,-0.520372 0.486791,-0.722436 0.09074,-0.08384 0.179178,-0.139515 0.278537,-0.206188 0.174167,-0.122711 0.342514,-0.253616 0.561724,-0.294039 0.07068,-0.01304 0.142838,-0.01527 0.214974,-0.01447 z m 0.278539,1.815391 c -0.003,0.0046 -0.008,0.01569 -0.0124,0.02223 0.003,-0.0011 0.006,-0.0031 0.01,-0.0041 5.3e-4,-7.94e-4 0.001,-0.0016 0.002,-0.0026 0.002,-0.0046 0.004,-0.01971 0.001,-0.0155 z m 13.3935,16.665651 c 0,5.3e-4 2.7e-4,0.001 5.3e-4,0.002 1.8e-4,-2.5e-4 5.3e-4,-5.3e-4 5.3e-4,-0.002 z m 5.3e-4,0.002 -10e-4,5.3e-4 c 1.4e-4,2.6e-4 1.8e-4,7.9e-4 5.3e-4,10e-4 0,-5.2e-4 2.7e-4,-10e-4 5.3e-4,-0.002 z m -0.002,0.002 c 1.6e-4,2.7e-4 1.1e-4,8e-4 5.3e-4,0.001 2e-5,-2.6e-4 5.3e-4,-7.9e-4 5.3e-4,-0.001 z m 5.3e-4,0.001 h -10e-4 c 1.8e-4,2.7e-4 8e-4,1.5e-4 10e-4,5.3e-4 z m 0,10e-4 c -5.3e-4,0.004 0.001,0.007 -0.005,0.0165 -7.9e-4,0.002 -0.003,0.003 -0.005,0.004 0.004,0.006 0.002,0.007 10e-4,0.009 h 0.007 c 0.006,-7.9e-4 0.012,-10e-4 0.015,-0.004 0.001,-0.001 -0.002,-0.001 -0.002,-0.001 -0.002,0 -0.002,-2.7e-4 -0.003,-0.002 -0.002,-0.006 -0.003,-0.0126 -0.005,-0.0186 -5.3e-4,-0.002 -0.002,-0.002 -0.003,-0.004 z m -25.417047,0.0646 c -0.0029,5.3e-4 -0.0056,0.002 -0.0083,0.003 0.0031,-1.2e-4 0.0062,8e-5 0.0093,0 -2.64e-4,-10e-4 -7.93e-4,-0.002 -0.0011,-0.003 z" />
    </clipPath>
    <clipPath
       clipPathUnits="userSpaceOnUse"
       id="clipPath338">
      <path
         id="path339"
         style="fill:#ff0000;fill-opacity:1;fill-rule:nonzero;stroke:none;stroke-width:0.264583"
         d="m 113.32021,137.53166 c 0.008,0.009 0.0153,0.0168 0.0248,0.0269 0.10378,0.15053 0.16404,0.26629 0.19224,0.3855 -0.001,-0.0312 -0.002,-0.0624 -0.003,-0.0935 -0.006,-0.0798 -0.0138,-0.16043 -0.0289,-0.23823 -0.0392,-0.055 -0.10886,-0.0741 -0.18501,-0.0806 z m -1.99005,0.14004 v 5.3e-4 5.3e-4 c 0.19441,0.69145 -0.35288,1.53675 -1.75545,1.72393 -1.41358,0.18865 -2.83023,0.34981 -4.24884,0.49609 -2.29169,0.17332 -4.57413,0.10293 -6.838341,-0.32866 -1.852271,-0.29779 -3.69987,-0.66091 -5.575887,-0.77049 -0.714471,-0.0487 -1.429465,-0.10451 -2.143022,-0.17312 0.01159,0.0372 0.02148,0.0774 0.02842,0.12144 0.02574,0.16357 0.03742,0.32886 0.04702,0.49403 -0.0024,0.20575 -0.01995,0.41098 -0.02945,0.6165 -0.0105,0.24851 -0.0127,0.497 -0.01498,0.74569 -7.94e-4,0.27042 0.0013,0.54045 -0.0181,0.81028 -0.0092,0.21576 -0.04567,0.42769 -0.09147,0.63821 -0.01683,0.0721 -0.04404,0.14244 -0.04754,0.21704 -5.29e-4,0.0133 0.0011,0.0508 0.0078,0.0393 -2.31e-4,-0.005 -0.0029,-0.0115 -0.0011,-0.0155 0.0026,-0.004 0.01696,0.0146 0.04186,0.0501 0.0434,0.0619 0.06171,0.0903 0.0925,0.16588 0.01254,0.0308 0.02037,0.0634 0.03049,0.0951 0.03805,0.13023 0.024,0.26402 0.01035,0.39636 -0.02891,0.28037 -0.165966,0.41673 -0.30851,0.44183 -7.94e-4,0.001 -0.0013,0.002 -0.0021,0.003 -0.0016,0.002 -0.0041,10e-4 -0.0057,0.003 -6.6e-5,1.2e-4 6.9e-5,5.3e-4 0,5.3e-4 -0.0064,0.0111 -0.02005,0.0215 -0.04134,0.0289 -0.01445,0.005 -0.02978,0.007 -0.04496,0.008 -0.01625,0 -0.03242,-0.002 -0.04858,-0.003 -0.01968,-0.001 -0.03976,-0.003 -0.05943,-0.005 -0.0059,-5.3e-4 -0.0073,-5.3e-4 -0.0088,-5.3e-4 -7.93e-4,9e-5 -0.0013,-7e-5 -0.0021,0 -0.0057,5.3e-4 -0.01135,0.002 -0.01704,0.002 -7.94e-4,4e-5 -0.0016,-1e-5 -0.0026,0 v 20.18791 h 23.66216 v -20.27185 c -0.0186,2.6e-4 -0.0372,9e-5 -0.0558,-5.3e-4 -0.003,0 -0.005,-5.3e-4 -0.008,-5.3e-4 h -5.3e-4 c -0.007,0.003 -0.0158,0.005 -0.0258,0.006 -0.002,2.3e-4 -0.004,2.3e-4 -0.006,5.3e-4 -0.0151,0.002 -0.0303,0.004 -0.0455,0.005 -0.0133,10e-4 -0.0278,0.002 -0.0408,-0.002 -0.005,-0.002 -0.011,-0.003 -0.015,-0.006 -0.006,-0.005 -0.0101,-0.0113 -0.015,-0.0176 -0.001,-9e-5 -0.003,-5.3e-4 -0.004,-5.3e-4 -0.002,-2.3e-4 -0.004,-2.2e-4 -0.006,-5.3e-4 -0.0757,-0.009 -0.0704,-0.0806 -0.005,-0.0822 0.002,-6e-5 0.005,-8e-5 0.007,0 -0.005,-0.009 -0.005,-0.0155 0.007,-0.0165 0.003,-2.6e-4 0.006,-4e-5 0.0103,5.3e-4 h 5.3e-4 c -5e-5,-0.007 0.002,-0.0131 0.008,-0.0186 -0.004,-0.007 -0.005,-0.017 -0.004,-0.0331 2.7e-4,-0.004 -7.9e-4,-0.006 0.003,-0.009 -0.14376,-0.036 -0.27182,-0.19563 -0.27182,-0.48472 v -0.12041 c 0,-0.17385 0.0472,-0.29896 0.11524,-0.38137 -0.0164,-0.038 -0.0311,-0.0797 -0.0429,-0.12661 -0.0388,-0.15462 -0.0889,-0.30611 -0.139,-0.45733 -0.0567,-0.18112 -0.0851,-0.36891 -0.10542,-0.55707 -0.0156,-0.30739 0.012,-0.61455 0.003,-0.92243 0.005,-0.39511 -0.21389,-0.73249 -0.33745,-1.09451 -0.10032,-0.29405 -0.0834,-0.28907 -0.11421,-0.58652 0.005,-0.08 0.0105,-0.1598 0.0155,-0.23978 0.01,-0.0589 0.0255,-0.11715 0.0295,-0.17674 0.004,-0.0522 -0.0169,-0.0135 -0.0315,-0.0264 -0.0312,-0.0276 -0.0489,-0.0677 -0.0729,-0.1018 -0.009,-0.007 -0.017,-0.0161 -0.0279,-0.0202 -0.008,-0.002 -0.0168,0.003 -0.0258,0.002 -0.0366,-0.003 -0.0733,-0.006 -0.10955,-0.0124 -0.0862,-0.0133 -0.17168,-0.0299 -0.25787,-0.0434 -0.19554,-0.0306 -0.39146,-0.0584 -0.58704,-0.0889 -0.15852,-0.0259 -0.32599,-0.049 -0.4594,-0.10439 z m 2.21381,0.61702 c -0.006,0.0434 -0.0135,0.0894 -0.0227,0.13952 0.003,0.0547 0.001,0.11043 0.008,0.16433 0.005,0.0259 0.01,0.0503 0.015,0.0739 1e-5,-0.11037 2.6e-4,-0.22088 0,-0.33124 -1e-4,-0.0155 -5.3e-4,-0.031 -5.3e-4,-0.0465 z" />
    </clipPath>
    <clipPath
       clipPathUnits="userSpaceOnUse"
       id="clipPath341">
      <path
         id="path342"
         style="fill:#ff0000;fill-opacity:1;fill-rule:nonzero;stroke:none;stroke-width:0.264583"
         d="m 98.772266,93.450627 c -7.94e-4,7.94e-4 -0.0016,0.0013 -0.0026,0.0021 h 0.0036 z m -0.0026,0.0021 -31.992877,5.29e-4 V 143.74371 H 137.19886 V 93.453209 h -36.40088 c 0.0181,0.0205 0.0422,0.04555 0.0574,0.06305 0.16853,0.194014 0.31961,0.401691 0.47284,0.607717 0.43919,0.606488 0.8563,1.228494 1.28675,1.84123 0.18834,0.258003 0.37387,0.518522 0.56017,0.778248 0.0576,0.02864 0.11591,0.0759 0.17001,0.153995 0.0305,0.04405 0.061,0.08824 0.0915,0.132292 0.10244,0.157258 0.20219,0.316201 0.30231,0.474906 0.2812,-0.952929 1.07455,-1.537502 2.0469,-1.527556 0.98906,0.01013 2.1614,0.634211 3.16363,2.108398 0.81098,1.19289 1.62634,2.383581 2.43034,3.581171 0.58817,0.83605 1.14468,1.69445 1.74512,2.52181 0.23243,0.30666 0.43449,0.64358 0.70538,0.91829 0.30705,0.31047 0.63242,0.5979 0.93483,0.91313 2.79096,2.90924 1.07142,5.71735 -1.5074,5.05498 0.0669,0.069 0.0814,0.13397 0.0703,0.18966 0.003,-7.9e-4 0.005,-0.002 0.008,-0.003 0.007,-10e-4 0.0141,-0.003 0.0212,-0.003 0.004,-2.1e-4 0.008,2.7e-4 0.0124,0.001 0.006,0.001 0.0115,0.001 0.0155,0.006 0.002,0.002 0.003,0.004 0.005,0.006 0.0137,7e-5 0.0273,-0.001 0.0403,0.004 0.004,7.9e-4 2.5e-4,0.007 0,0.0114 0,0.004 -0.003,0.0148 -0.005,0.0196 0.0113,0.005 0.0243,0.006 0.0243,0.0155 0.0211,0.0133 0.0408,0.0308 0.0563,0.0491 0.005,0.006 0.0105,0.013 0.0155,0.0202 0.004,0.007 0.008,0.0126 0.0114,0.0196 0.008,0.0169 0.0118,0.0391 0.0119,0.0594 0.004,-0.001 0.007,-0.001 0.0103,-0.002 0.001,-2.2e-4 0.002,-8e-5 0.002,-5.3e-4 v 0.001 l 5.3e-4,-5.3e-4 c -0.0375,0.036 0.0819,0.0119 0.0367,0.045 0.003,7.9e-4 -0.001,0.003 0.004,0.005 0.01,0.005 0.0145,0.0135 0.015,0.0217 1.5e-4,0.004 7.9e-4,0.005 -10e-4,0.008 v 10e-4 c -0.004,0.0114 -0.0181,0.0209 -0.0413,0.0217 -0.002,4e-5 -0.003,-3e-5 -0.004,0 -0.01,0 -0.0196,10e-4 -0.0295,0.002 -0.0141,0.002 -0.0286,0.004 -0.0424,0.007 -0.0127,0.003 -0.0252,0.006 -0.0382,0.007 -0.012,0.001 -0.0241,7.9e-4 -0.0362,0 -0.0112,0 -0.0224,0.001 -0.0336,-0.003 -0.008,-0.001 -0.0163,-0.002 -0.0243,-0.002 -0.01,-2e-5 -0.021,1e-4 -0.031,0 -0.0105,-1e-4 -0.0205,2.5e-4 -0.031,-5.3e-4 -0.01,-0.001 -0.019,-0.002 -0.0289,-0.002 -0.007,0 -0.0132,-2.7e-4 -0.0202,5.3e-4 -0.007,0.001 -0.0147,0.004 -0.0217,0.004 -0.002,-6e-5 -0.005,-1e-4 -0.007,-5.3e-4 -0.004,-2e-4 -0.006,-0.002 -0.0114,-0.001 -0.003,-2.5e-4 -0.007,-2.6e-4 -0.0103,-10e-4 -0.0131,-0.004 -0.0214,-0.0128 -0.0279,-0.0238 -0.01,-10e-4 -0.0196,-5.3e-4 -0.0289,-0.004 -0.003,-0.001 -0.007,-0.002 -0.01,-0.004 -0.006,-0.003 -0.008,-0.0108 -0.0124,-0.0155 -0.0338,-0.006 -0.0393,-0.0355 -0.0171,-0.0496 5.3e-4,-0.003 -2.6e-4,-0.005 5.3e-4,-0.008 -0.0103,-1.3e-4 -0.0206,-5.2e-4 -0.031,-5.2e-4 -0.005,0.001 -0.0111,0.003 -0.015,0.002 -0.005,10e-4 -0.0101,0.002 -0.0114,-0.002 -5.3e-4,-0.002 5.3e-4,-0.004 0,-0.006 -0.003,5e-5 -0.005,-5e-5 -0.008,0 l 5.3e-4,0.002 c -0.0581,10e-4 -0.0618,-0.0574 -0.002,-0.0584 0.006,-9e-5 0.012,-5.2e-4 0.0181,-0.001 -0.012,-0.005 -0.0174,-0.017 -0.015,-0.0279 -0.009,-0.002 -0.0187,-0.002 -0.0274,-0.005 v 0.001 c -0.0309,-0.0106 -0.0311,-0.0285 -0.0207,-0.0419 -0.003,-0.0106 -0.004,-0.0301 -0.003,-0.0398 v -0.001 c -0.007,-0.001 -0.014,-5.3e-4 -0.0207,-0.003 v -5.3e-4 c -0.0393,-0.0107 -0.0427,-0.04 -0.0212,-0.0522 l -5.3e-4,-0.001 c -0.0146,0.008 -0.0352,-10e-4 -0.0434,-0.0326 -0.001,-0.004 -0.002,-0.007 -0.003,-0.0114 -2.6e-4,-0.001 5e-5,-0.002 -5.3e-4,-0.003 -0.0226,-0.0234 -0.0436,-0.0461 -0.0522,-0.0692 -0.006,-0.006 -0.0125,-0.0115 -0.0186,-0.017 -0.0129,-0.0128 -0.0236,-0.0266 -0.0341,-0.0413 -0.002,-5.3e-4 -0.002,-0.004 -0.004,-0.005 -0.008,-0.005 -0.0169,-0.0118 -0.0212,-0.0279 -10e-4,-0.002 -5.3e-4,-0.005 -0.002,-0.007 -0.001,-0.005 0.004,-0.003 0.004,-0.006 -5.2e-4,-0.007 -0.001,-0.014 0.003,-0.0191 -0.0192,-0.008 -0.0381,-0.0144 -0.0584,-0.0264 -0.10936,-0.0656 -0.20575,-0.14566 -0.29766,-0.23151 -0.49269,-0.25904 -1.0005,-0.6391 -1.50275,-1.16944 -0.28154,-0.29729 -0.63346,-0.57135 -0.91157,-0.88832 -0.41349,-0.44863 -0.78115,-0.93433 -1.13017,-1.43454 -0.30247,-0.42156 -0.59737,-0.84887 -0.8909,-1.27692 -0.0733,-0.0559 -0.15116,-0.11116 -0.20877,-0.1695 -0.0613,-0.062 -0.20711,-0.14134 -0.15451,-0.21084 0.0171,-0.0226 0.0436,-0.036 0.0625,-0.0568 -0.21728,-0.31776 -0.43406,-0.63582 -0.65371,-0.95188 -0.7243,-1.07943 -1.45826,-2.15205 -2.18953,-3.22668 -0.26635,-0.0666 -0.55472,-0.23161 -0.83509,-0.54932 -0.0751,-0.0851 -0.16813,-0.15113 -0.24753,-0.23203 -0.15049,-0.15638 -0.29235,-0.32017 -0.43615,-0.48265 -0.32064,-0.374796 -0.62027,-0.766126 -0.90124,-1.171512 -0.45107,-0.625176 -0.89602,-1.254964 -1.35082,-1.877404 -0.40932,-0.58293 -0.80806,-1.173372 -1.223695,-1.75183 -0.142806,0.33592 -0.287973,0.670679 -0.472324,0.98702 -0.37683,0.652176 -0.787632,1.283263 -1.212328,1.905309 -0.421961,0.627886 -0.84024,1.258692 -1.292426,1.865517 -0.361218,0.50141 -0.723961,1.0019 -1.056783,1.52291 -0.368157,0.56927 -0.742778,1.13588 -1.070219,1.73013 -0.08959,0.18046 -0.209984,0.37164 -0.208775,0.57981 v 5.3e-4 c 0.0047,0.83065 -0.363093,1.29102 -0.775147,1.38286 -0.05451,0.10224 -0.115543,0.20593 -0.195852,0.31265 -0.646631,0.8593 -1.290757,1.72064 -1.949233,2.5709 -0.168431,0.21722 -0.335706,0.43542 -0.505397,0.65164 -0.141763,0.18065 -0.285694,0.3595 -0.428913,0.53898 -0.253804,0.31805 -0.519398,0.63151 -0.705385,0.99632 -0.241016,0.47285 -0.547764,0.73328 -0.844393,0.83457 0.151198,0.38268 -0.208516,0.67511 -0.703316,0.45941 -0.0013,0.01 -0.0044,0.0195 -0.0083,0.0284 -0.0053,0.012 -0.0168,0.0192 -0.02894,0.0238 -2.9e-5,5.3e-4 4.8e-5,5.3e-4 0,0.002 0.0056,0.009 0.0078,0.0191 0.0062,0.0295 0.0413,0.0337 0.02866,0.0942 -0.05684,0.092 -0.0044,-1.2e-4 -0.0086,-4e-5 -0.01291,-5.3e-4 -0.01304,0.006 -0.02951,0.0103 -0.04961,0.0103 -0.01127,0 -0.02246,-2.6e-4 -0.03359,-0.002 -0.0066,-10e-4 -0.01336,-0.003 -0.02016,-0.003 h -0.03049 -0.03824 c -0.01175,-4e-5 -0.02339,5e-5 -0.03514,0 -0.0097,-9e-5 -0.01976,-4e-5 -0.02946,-5.3e-4 -0.01003,0 -0.01998,-0.001 -0.02997,-0.002 -0.0073,-0.001 -0.01439,-0.003 -0.0217,-0.002 -0.01061,-1.1e-4 -0.0209,8e-5 -0.03152,-5.3e-4 -0.01074,-10e-4 -0.02188,-0.002 -0.03256,-0.003 -0.0079,-10e-4 -0.01566,-5.3e-4 -0.02376,-10e-4 -0.01339,0 -0.02713,-2.7e-4 -0.04031,-0.003 -0.0317,-0.007 -0.05271,-0.0208 -0.06201,-0.0543 -5.29e-4,-0.004 -0.0016,-0.008 -0.0016,-0.0124 5.29e-4,-0.0302 0.01312,-0.0501 0.03824,-0.0656 0.0016,-8e-4 0.0031,-5.3e-4 0.0047,-0.002 -0.02236,-0.0342 -0.0063,-0.0811 0.06821,-0.0811 h 0.0083 c 0.0086,-0.007 0.01609,-0.016 0.02635,-0.0217 0.0088,-0.005 0.01773,-0.0105 0.02687,-0.015 -0.0069,-1.1e-4 -0.0173,0.003 -0.01757,-0.004 -5.29e-4,-0.0115 0.0019,-0.0194 0.0062,-0.0243 -9e-5,-0.002 -9.3e-5,-0.003 0,-0.005 1.64e-4,-0.003 0.0032,-0.002 0.0072,0 0.01138,-0.005 0.02734,-0.003 0.03979,-0.004 0.0031,-1e-4 0.0062,8e-5 0.0093,0 -0.0019,-0.006 0.0021,-0.007 0.0041,-0.0103 -0.0019,-5.3e-4 -0.0038,-2.4e-4 -0.0057,-0.002 v -10e-4 c -0.08962,-0.0225 -0.08685,-0.099 -0.02429,-0.11317 -0.390805,-0.33565 -0.282659,-0.75515 0.06253,-0.8325 -0.05933,-0.29595 -0.0098,-0.67278 0.210326,-1.1033 0.238678,-0.46677 0.569272,-0.87427 0.893484,-1.28261 0.664832,-0.83737 0.207976,-0.25426 0.919324,-1.17202 0.652928,-0.84323 1.2915,-1.69763 1.932699,-2.54971 0.191403,-0.25436 0.393793,-0.43179 0.592728,-0.54467 -1.11e-4,-0.005 -5.29e-4,-0.01 -5.29e-4,-0.0155 -0.0048,-0.37031 0.09553,-0.73163 0.239262,-1.07022 0.04761,-0.11217 0.104373,-0.2201 0.156578,-0.33022 0.356034,-0.66779 0.774891,-1.29932 1.185458,-1.93425 0.349922,-0.5475 0.730308,-1.074898 1.110009,-1.601963 0.440201,-0.590204 0.846796,-1.20399 1.257289,-1.814875 0.40045,-0.587431 0.789382,-1.179833 1.144633,-1.795757 0.209624,-0.366556 0.360913,-0.760764 0.526582,-1.147733 0.115869,-0.271886 0.268102,-0.520375 0.486793,-0.722437 0.0053,-0.005 0.01066,-0.0088 0.01601,-0.01291 z m 0.0057,-0.0011 c -5.29e-4,5.29e-4 -0.0011,5.29e-4 -0.0016,0.0011 h 0.0016 z m 0,0.0011 h 0.0011 v -0.0011 c -2.64e-4,2.65e-4 -5.29e-4,7.94e-4 -0.0011,0.0011 z m 1.312584,1.319815 c -0.003,0.0046 -0.008,0.01569 -0.0124,0.02223 0.003,-0.0011 0.006,-0.0031 0.01,-0.0041 5.3e-4,-7.93e-4 0.001,-0.0016 0.002,-0.0026 0.002,-0.0046 0.004,-0.01971 0.001,-0.0155 z m 13.3935,16.663578 c -10e-4,0.007 -10e-4,0.009 -0.005,0.0217 -8e-4,0.002 -0.003,0.003 -0.005,0.004 0.005,0.007 0.003,0.009 0.002,0.0109 0.003,1e-5 0.005,1e-5 0.008,0 0.006,-7.9e-4 0.0124,-10e-4 0.0155,-0.004 0.001,-0.001 -0.002,-0.001 -0.002,-0.001 -0.002,0 -0.002,-2.7e-4 -0.003,-0.002 -0.002,-0.006 -0.003,-0.0126 -0.005,-0.0186 -0.002,-0.005 -0.003,-0.008 -0.005,-0.0109 z m -25.030517,0.61702 c 0.03084,-0.001 0.06086,0.0298 0.05581,0.0904 -0.01196,0.14331 -0.02506,0.28662 -0.03669,0.42995 -0.0063,0.075 -0.01445,0.15053 -0.01704,0.22583 -5.29e-4,0.0165 -2.64e-4,0.0218 0,0.0362 0.0027,0.11443 -0.111045,0.12143 -0.115239,0.009 -7.94e-4,-0.0195 -0.0013,-0.0248 -5.29e-4,-0.0465 0.0024,-0.0783 0.01098,-0.1561 0.01757,-0.2341 0.01164,-0.14329 0.02474,-0.28668 0.03669,-0.42995 0.0045,-0.0533 0.03222,-0.0791 0.05943,-0.0801 z m -0.56586,23.50192 v 5.3e-4 5.3e-4 h 5.3e-4 5.29e-4 v 5.3e-4 c 0.204271,-0.002 0.428482,0.0189 0.671277,0.0677 1.493681,0.30039 3.018197,0.40404 4.535641,0.50695 1.957559,0.1123 3.885107,0.48715 5.817732,0.79788 2.056198,0.39289 4.126608,0.46954 6.207888,0.30282 1.3694,-0.14362 2.7379,-0.29728 4.10259,-0.48007 0.8972,-0.12019 1.52087,0.11515 1.85777,0.48576 0.005,-0.0471 0.0145,-0.0972 0.031,-0.154 0.0454,-0.15622 0.32248,-0.22091 0.44339,-0.26251 0.30787,-0.0581 0.62208,-0.11877 0.93637,-0.12248 0.10478,-0.001 0.20968,0.004 0.3142,0.0176 0.0397,0.0535 0.0962,0.10146 0.14831,0.1509 0.0169,-7.9e-4 0.0337,-0.002 0.0506,-0.003 0.27934,-0.007 0.57398,-0.008 0.81856,0.14779 0.0431,0.0274 0.0799,0.0633 0.11989,0.0951 0.18979,0.18919 0.23738,0.4353 0.25838,0.69091 0.0107,0.1778 0.011,0.35581 0.0119,0.53382 5.3e-4,0.1531 1e-5,0.3063 0,0.4594 -1e-5,0.0257 1e-5,0.0513 0,0.077 0,0.03 -0.009,0.0497 -0.0119,0.077 0.0998,0.0175 0.21346,0.10378 0.35398,0.29507 0.0737,0.10036 -0.12098,0.37302 -0.17777,0.46302 -0.0812,0.1287 -0.17424,0.20716 -0.2651,0.24598 -0.009,0.0169 -0.0178,0.0336 -0.0264,0.0506 -0.0161,0.0329 -0.005,0.10029 -0.0419,0.10129 -0.0243,7.9e-4 -0.0486,5.3e-4 -0.0729,0 2.6e-4,0.0159 0.006,0.0305 0.006,0.0465 0.007,0.28989 -0.01,0.57883 -0.006,0.86816 0.0149,0.14107 0.0348,0.28229 0.0755,0.41858 0.0498,0.15077 0.10068,0.30152 0.13849,0.45579 l -5.3e-4,-5.3e-4 c 0.0549,0.22408 0.0137,0.39512 -0.0698,0.49609 0.0197,0.0637 0.0315,0.13716 0.0315,0.22325 v 0.1204 c 0,0.20139 -0.0652,0.33382 -0.15141,0.41238 0.008,0.007 0.0134,0.0165 0.0129,0.0295 -5.3e-4,0.0155 -0.0117,0.0296 -0.0207,0.0419 -0.002,0.002 -0.006,0.005 -0.0119,0.007 0.0106,0.0108 0.0205,0.0219 0.0217,0.0362 2.1e-4,0.002 5.3e-4,0.004 0,0.006 0.004,0.003 0.008,0.007 0.0119,0.01 0.003,0.005 0.007,0.009 0.009,0.015 2.6e-4,0.001 -2.7e-4,0.002 0,0.003 0.01,0.007 0.009,0.0191 0.009,0.03 l 5.3e-4,5.3e-4 c 0.0235,0.0217 0.0105,0.062 -0.045,0.0682 -0.0111,0.001 -0.0225,0.002 -0.0336,0.002 -0.0191,2.7e-4 -0.0383,9e-5 -0.0574,-5.3e-4 -0.003,0 -0.006,-0.001 -0.009,-0.001 -0.007,0.003 -0.0155,0.005 -0.0253,0.006 -0.002,2.3e-4 -0.004,2.3e-4 -0.006,5.3e-4 -0.0151,0.002 -0.0303,0.004 -0.0455,0.005 -0.0133,0.001 -0.0278,0.002 -0.0408,-0.002 -0.005,-0.002 -0.011,-0.003 -0.015,-0.006 -0.006,-0.005 -0.01,-0.011 -0.0145,-0.0171 -0.002,-1.3e-4 -0.003,-10e-4 -0.005,-10e-4 -0.002,-2.3e-4 -0.004,-2e-4 -0.006,-5.3e-4 -0.0757,-0.009 -0.0732,-0.0811 -0.005,-0.0827 0.002,-6e-5 0.005,5.3e-4 0.008,5.3e-4 -0.005,-0.009 -0.005,-0.017 0.006,-0.0181 0.003,-2.3e-4 0.006,3e-5 0.0103,5.3e-4 -7e-5,-0.007 0.003,-0.0131 0.009,-0.0186 -0.004,-0.007 -0.005,-0.0175 -0.004,-0.0336 5.3e-4,-0.005 0.002,-0.01 0.005,-0.0129 -0.1444,-0.0352 -0.27389,-0.19044 -0.27389,-0.48059 v -0.1204 c 0,-0.17382 0.0472,-0.29896 0.11524,-0.38139 -0.0164,-0.038 -0.0311,-0.0797 -0.0429,-0.12659 -0.0388,-0.15462 -0.0889,-0.30562 -0.13901,-0.45682 -0.0567,-0.18118 -0.0851,-0.36892 -0.10542,-0.55707 -0.0156,-0.30738 0.01,-0.61507 0.003,-0.92295 0.005,-0.39515 -0.21387,-0.73247 -0.33745,-1.0945 -0.1003,-0.29405 -0.0834,-0.28856 -0.11421,-0.58601 0.005,-0.08 0.0105,-0.15978 0.0155,-0.23978 0.01,-0.0589 0.0265,-0.11765 0.0305,-0.17725 0.004,-0.0522 -0.0164,-0.0145 -0.031,-0.0274 -0.0312,-0.0276 -0.0499,-0.0677 -0.0739,-0.1018 -0.009,-0.007 -0.0165,-0.0167 -0.0274,-0.0207 -0.008,-0.002 -0.0158,0.003 -0.0248,0.002 -0.0366,-0.003 -0.0738,-0.007 -0.11007,-0.0134 -0.0862,-0.0133 -0.17115,-0.0299 -0.25735,-0.0434 -0.19554,-0.0306 -0.39198,-0.0584 -0.58756,-0.0889 -0.16099,-0.0263 -0.33067,-0.0497 -0.46509,-0.10697 0.19837,0.69248 -0.34324,1.54094 -1.74925,1.72858 -1.41326,0.18864 -2.83074,0.34982 -4.24935,0.49609 -2.2916,0.17334 -4.57375,0.10294 -6.83782,-0.32866 -1.852221,-0.29778 -3.699918,-0.66094 -5.575888,-0.7705 -0.713994,-0.0487 -1.428747,-0.10286 -2.141987,-0.17053 0.01122,0.0365 0.02061,0.0758 0.02739,0.11886 0.02574,0.16356 0.0374,0.32884 0.04703,0.49402 -0.0024,0.20575 -0.01995,0.41098 -0.02946,0.6165 -0.0105,0.24848 -0.01281,0.497 -0.015,0.74569 -7.94e-4,0.27042 7.94e-4,0.54046 -0.0186,0.81029 -0.0092,0.21575 -0.04567,0.42768 -0.09147,0.6382 -0.01683,0.0721 -0.04404,0.14245 -0.04754,0.21704 -5.29e-4,0.0133 0.0026,0.0513 0.0093,0.0398 -2.3e-4,-0.005 -0.0057,-0.0115 -0.0031,-0.0155 0.0026,-0.004 0.01696,0.0141 0.04186,0.0496 0.0434,0.0619 0.06171,0.0903 0.0925,0.16588 0.01254,0.0308 0.02037,0.0634 0.03049,0.0951 0.03805,0.13024 0.0245,0.26402 0.01085,0.39636 -0.02865,0.27782 -0.162912,0.40891 -0.303858,0.43408 -0.0013,0.003 -0.0042,0.008 -0.0083,0.0129 -0.0016,0.002 -0.0041,0.001 -0.0057,0.003 -8.2e-5,1.5e-4 8.8e-5,2.7e-4 0,5.3e-4 -0.0063,0.0112 -0.01982,0.022 -0.04134,0.0295 -0.01445,0.005 -0.02978,0.007 -0.04496,0.008 -0.01624,0 -0.03242,-0.002 -0.04858,-0.003 -0.01968,-10e-4 -0.03976,-0.003 -0.05943,-0.005 -0.0073,-5.3e-4 -0.0092,-5.3e-4 -0.01085,-5.3e-4 -0.0057,5.3e-4 -0.01135,0.002 -0.01704,0.002 -0.03998,0.001 -0.04852,-0.0148 -0.04496,-0.0326 -0.01013,-0.0199 1.38e-4,-0.0439 0.02946,-0.0512 0.0029,-0.01 4.5e-5,-0.0218 0.01188,-0.0264 0.0016,-0.003 -0.0016,-0.008 0.0011,-0.0103 -0.08343,-0.0849 -0.142459,-0.22119 -0.120922,-0.42891 0.0051,-0.0485 0.01603,-0.0986 0.01291,-0.14314 -0.0064,-0.096 -0.158379,-0.17773 -0.162779,-0.29043 -0.04905,-0.19936 -0.03827,-0.393 0.0279,-0.58859 0.03912,-0.1797 0.0709,-0.35973 0.07752,-0.54415 0.01879,-0.25573 0.01484,-0.51216 0.01654,-0.76843 0.0024,-0.25697 0.0046,-0.51372 0.0155,-0.7705 0.0085,-0.18251 0.02127,-0.36481 0.02997,-0.54725 -0.0081,-0.14132 -0.01791,-0.28271 -0.03927,-0.42271 -0.01754,-0.11488 -0.01124,-0.21244 0.01085,-0.29249 -0.680376,-0.0762 -1.358857,-0.16878 -2.030883,-0.30283 -2.346368,-0.46799 -2.207123,-2.67422 -0.235643,-2.69906 z m 23.641967,1.49707 c -0.002,2.6e-4 -0.004,0.001 0,0.004 0.0265,0.01 0.0532,0.0188 0.0801,0.0269 -5.3e-4,-0.001 -8e-4,-0.003 -0.002,-0.004 -0.009,-0.0183 -0.062,-0.0264 -0.078,-0.0264 z m 1.79317,0.47956 c 0.008,0.009 0.0153,0.0168 0.0248,0.0269 0.10378,0.15053 0.16404,0.26629 0.19224,0.3855 -0.001,-0.0312 -0.002,-0.0624 -0.003,-0.0935 -0.006,-0.0798 -0.0138,-0.16044 -0.0289,-0.23823 -0.0392,-0.055 -0.10886,-0.0741 -0.18501,-0.0806 z m 0.22325,0.75706 c 0,0.001 -10e-6,0.002 0,0.003 1.3e-4,-0.001 -6e-5,-0.002 5.3e-4,-0.003 z m 0,0.003 c -0.006,0.0426 -0.0132,0.0874 -0.0222,0.13642 0.003,0.0547 0.001,0.11043 0.008,0.16433 0.005,0.0259 0.01,0.0503 0.015,0.0739 0,-0.11038 2.6e-4,-0.22089 0,-0.33124 -9e-5,-0.0145 -5.3e-4,-0.029 -5.3e-4,-0.0434 z m 0.89038,1.18907 c -0.001,-0.002 -0.0168,0.0164 -0.0532,0.0636 0.002,5.3e-4 0.003,0.001 0.005,0.002 0.006,0.002 0.0506,-0.0621 0.0486,-0.0651 z m -0.43615,3.79357 c 2.3e-4,5.3e-4 2e-4,5.3e-4 5.3e-4,10e-4 -1e-5,-2.7e-4 -1e-5,-5.3e-4 0,-10e-4 z m 5.3e-4,0.003 c 0,0.002 -3e-5,0.003 0,0.005 10e-4,2.4e-4 0.002,1.7e-4 0.003,5.3e-4 z" />
    </clipPath>
  </defs>
  <g
     inkscape:label="Layer 1"
     inkscape:groupmode="layer"
     id="layer1">
    <rect
       style="fill:#000000;fill-opacity:0;stroke:#000000;stroke-width:0.161557;stroke-opacity:1"
       id="rect11"
       width="23.500738"
       height="26.142395"
       x="90.363953"
       y="137.43967"
       ry="0"
       clip-path="url(#clipPath338)" />
    <path
       d="m 98.844132,61.717432 -30.676796,50.379578 30.585566,-0.25108 32.586048,-0.33712 z"
       style="fill-opacity:0;stroke:#000000;stroke-width:0.226828"
       id="path12"
       sodipodi:nodetypes="ccccc"
       clip-path="url(#clipPath282)" />
    <path
       id="rect2"
       style="fill-opacity:0;stroke:#000000;stroke-width:0.264583"
       d="m 106.42599,143.60646 -39.402891,0.005 33.042101,-49.928208 36.87269,49.592898 z"
       sodipodi:nodetypes="ccccc"
       clip-path="url(#clipPath341)" />
    <path
       style="fill:#008000;fill-opacity:1;stroke:#000000;stroke-width:0.264583;stroke-opacity:0"
       d="m 90.752082,73.554166 c 0.440972,0.352778 0.881945,0.705555 1.102431,0.926039 0.220486,0.220484 0.220486,0.308684 0.440972,0.396878 0.220486,0.08819 0.661457,0.176388 1.146527,0.440972 0.48507,0.264584 1.014236,0.705555 1.5875,1.10243 0.573264,0.396875 1.190627,0.749654 1.587502,1.014237 0.396875,0.264584 0.573262,0.440971 0.793749,0.529166 0.220486,0.08819 0.485069,0.08819 0.926041,0.30868 0.440973,0.220486 1.058334,0.661459 1.852086,1.058334 0.79375,0.396875 1.76389,0.749652 2.42535,1.058331 0.66145,0.308679 1.01423,0.573264 1.4993,0.749654 0.48507,0.17639 1.10243,0.264584 1.6316,0.440975 0.52917,0.17639 0.97014,0.440972 1.98437,0.573263 1.01424,0.132291 2.60174,0.132291 3.48368,0.08819 0.88195,-0.0441 1.05834,-0.132292 1.23473,-0.220487"
       id="path1"
       inkscape:path-effect="#path-effect1"
       inkscape:original-d="m 90.752082,73.554166 c 0.440973,0.352777 0.881944,0.705556 1.322917,1.058333 0,0.08819 0,0.17639 0,0.264583 0.440973,0.08819 0.881943,0.17639 1.322916,0.264584 0.529167,0.440973 1.058334,0.881943 1.5875,1.322916 0.617361,0.352777 1.234724,0.705557 1.852084,1.058334 0.17639,0.176389 0.352777,0.352777 0.529166,0.529166 0.264584,0 0.529167,0 0.79375,0 0.617361,0.440973 1.234724,0.881944 1.852085,1.322917 0.97014,0.352777 1.94028,0.705556 2.91042,1.058333 0.35277,0.264584 0.70555,0.529167 1.05833,0.79375 0.61736,0.08819 1.23472,0.17639 1.85208,0.264584 0.44098,0.264583 0.88195,0.529166 1.32292,0.79375 1.5875,0 3.175,0 4.7625,0 0.17639,-0.08819 0.35278,-0.17639 0.52917,-0.264584" />
    <path
       style="fill:#008000;fill-opacity:1;stroke:#000000;stroke-width:0.264583;stroke-opacity:0"
       d="m 112.97708,82.285416 c -2.73402,0.881942 -5.46805,1.763888 -7.62882,2.469444 -2.16076,0.705556 -3.74826,1.234722 -4.85069,1.5875 -1.102431,0.352778 -1.719794,0.529167 -2.116669,0.617362 -0.396875,0.08819 -0.573262,0.08819 -0.793748,0.264582 -0.220487,0.176389 -0.485071,0.529168 -2.337155,1.058334 -1.852083,0.529167 -5.291666,1.234722 -7.584721,1.5875 -2.293055,0.352778 -3.439584,0.352778 -4.101043,0.264583 -0.661458,-0.08819 -0.837845,-0.264582 -1.014235,-0.440972"
       id="path2"
       inkscape:path-effect="#path-effect3"
       inkscape:original-d="m 112.97708,82.285416 c -2.73402,0.881943 -5.46805,1.763889 -8.20208,2.645833 -1.5875,0.529167 -3.175,1.058333 -4.7625,1.5875 -0.617361,0.17639 -1.234724,0.352777 -1.852085,0.529167 -0.176389,0 -0.352776,0 -0.529166,0 -0.264584,0.352776 -0.529167,0.705556 -0.79375,1.058333 -3.439584,0.705556 -6.879167,1.41111 -10.31875,2.116667 -1.146527,0 -2.293056,0 -3.439583,0 -0.17639,-0.17639 -0.352777,-0.352777 -0.529167,-0.529167" />
    <path
       style="fill:#ff0000;fill-opacity:1;stroke:#000000;stroke-width:0.264583;stroke-opacity:0"
       d="m 82.549999,89.429166 c 0.08819,0.352775 0.176389,0.705556 0.529166,1.058333 0.352778,0.352777 0.97014,0.705556 1.367015,0.881944 0.396875,0.176389 0.573262,0.176389 0.749652,0.264584 0.17639,0.08819 0.352777,0.264582 0.705556,0.440972 0.352778,0.176389 0.881944,0.352778 1.719791,0.749653 0.837847,0.396874 1.984376,1.014237 2.689932,1.322917 0.705555,0.30868 0.970138,0.30868 1.367013,0.440972 0.396875,0.132291 0.926042,0.396875 1.455208,0.573264 0.529166,0.176388 1.058333,0.264583 1.807986,0.485069 0.749654,0.220486 1.719792,0.573263 3.175,0.970138 1.455208,0.396875 3.395492,0.837849 5.688542,1.102432 2.29306,0.264583 4.93889,0.352777 8.20209,0.396874 3.26319,0.0441 7.14374,0.0441 11.0243,0.0441"
       id="path3"
       inkscape:path-effect="#path-effect4"
       inkscape:original-d="m 82.549999,89.429166 c 0.08819,0.352776 0.17639,0.705556 0.264583,1.058333 0.617361,0.352777 1.234723,0.705556 1.852084,1.058333 0.176389,0 0.352776,0 0.529166,0 0.17639,0.17639 0.352777,0.352777 0.529167,0.529167 0.529167,0.17639 1.058333,0.352777 1.5875,0.529167 1.146527,0.61736 2.293056,1.234723 3.439583,1.852083 0.264584,0 0.529167,0 0.79375,0 0.529167,0.264583 1.058334,0.529166 1.5875,0.79375 0.529167,0.08819 1.058333,0.17639 1.5875,0.264583 0.97014,0.352777 1.940277,0.705557 2.910417,1.058333 1.940277,0.440974 3.880561,0.881944 5.820831,1.322917 2.64584,0.08819 5.29167,0.17639 7.9375,0.264583 3.88056,0 7.76111,0 11.64167,0" />
    <path
       style="fill:#ff0000;fill-opacity:1;stroke:#000000;stroke-width:0.264583;stroke-opacity:0.04710921"
       d="m 122.76667,99.218749 c -3.2632,0.440974 -6.52639,0.881951 -9.61319,1.499311 -3.08681,0.61736 -5.99723,1.41111 -9.08404,2.20486 -3.0868,0.79375 -6.349998,1.5875 -8.290275,2.02847 -1.940277,0.44097 -2.557639,0.52917 -3.042707,0.70555 -0.485068,0.17639 -0.83785,0.44098 -1.587501,0.79376 -0.749651,0.35277 -1.896179,0.79375 -3.836457,1.41111 -1.940278,0.61736 -4.674307,1.41111 -6.482292,1.80799 -1.807986,0.39687 -2.689932,0.39687 -4.012848,0.39687 -1.322917,0 -3.086804,0 -4.321527,0 -1.234724,0 -1.940277,0 -2.513543,0.0882 -0.573265,0.0882 -1.014233,0.26458 -1.455207,0.35278 -0.440974,0.0882 -0.881944,0.0882 -1.322917,0.0882"
       id="path5"
       inkscape:path-effect="#path-effect5"
       inkscape:original-d="m 122.76667,99.218749 c -3.2632,0.440973 -6.52639,0.881941 -9.78959,1.322921 -2.91041,0.79375 -5.82083,1.5875 -8.73125,2.38125 -3.26319,0.79375 -6.526388,1.5875 -9.789581,2.38125 -0.61736,0.0882 -1.234723,0.17639 -1.852083,0.26458 -0.352777,0.26458 -0.705557,0.52917 -1.058334,0.79375 -1.146527,0.44097 -2.293056,0.88194 -3.439583,1.32292 -2.734027,0.79375 -5.468056,1.5875 -8.202083,2.38125 -0.881944,0 -1.76389,0 -2.645834,0 -1.763889,0 -3.527776,0 -5.291666,0 -0.705557,0 -1.41111,0 -2.116667,0 -0.440973,0.17639 -0.881943,0.35277 -1.322917,0.52916 -0.440973,0 -0.881943,0 -1.322916,0" />
    <path
       style="fill:#ffcc00;fill-opacity:1;stroke:#000000;stroke-width:0.285113;stroke-opacity:0"
       d="m 71.437499,109.5375 c 1.499308,1.14653 2.998614,2.29306 4.012848,3.04271 1.014235,0.74965 1.543402,1.10243 2.248956,1.6316 0.705555,0.52916 1.587503,1.23472 2.337156,1.71979 0.749653,0.48506 1.367014,0.74965 2.028473,1.14652 0.661458,0.39688 1.367014,0.92605 1.763887,1.27882 0.396873,0.35278 0.485069,0.52917 0.661459,0.66146 0.17639,0.13229 0.440972,0.22049 0.970139,0.52917 0.529167,0.30868 1.322918,0.83785 1.89618,1.14653 0.573263,0.30868 0.926041,0.39687 1.631597,0.66146 0.705555,0.26458 1.763888,0.70555 5.203472,1.05833 3.439583,0.35277 9.260414,0.61736 13.493754,0.70555 4.23333,0.0882 6.87916,0 8.29027,-0.0441 1.41111,-0.0441 1.5875,-0.0441 1.6757,-0.0882 0.0882,-0.0441 0.0882,-0.13229 0.26458,-0.26458 0.17639,-0.13229 0.52917,-0.30868 0.88195,-0.57326 0.35278,-0.26458 0.70556,-0.61736 1.05833,-0.97014"
       id="path6"
       inkscape:path-effect="#path-effect6"
       inkscape:original-d="m 71.437499,109.5375 c 1.499307,1.14653 2.99861,2.29306 4.497917,3.43958 0.529166,0.35278 1.058333,0.70556 1.5875,1.05834 0.881943,0.70555 1.763889,1.41111 2.645833,2.11666 0.61736,0.26459 1.234723,0.52917 1.852083,0.79375 0.705557,0.52917 1.411111,1.05834 2.116667,1.5875 0.08819,0.17639 0.17639,0.35278 0.264583,0.52917 0.264584,0.0882 0.529167,0.17639 0.79375,0.26458 0.79375,0.52917 1.5875,1.05834 2.38125,1.5875 0.352777,0.0882 0.705557,0.17639 1.058334,0.26459 1.058333,0.44097 2.116666,0.88194 3.175,1.32291 5.820833,0.26459 11.641664,0.52917 17.462504,0.79375 2.64583,-0.0882 5.29166,-0.17639 7.9375,-0.26458 0.17638,0 0.35277,0 0.52916,0 0,-0.0882 0,-0.17639 0,-0.26458 0.35278,-0.17639 0.70556,-0.35278 1.05834,-0.52917 0.35277,-0.35278 0.70555,-0.70556 1.05833,-1.05833"
       transform="matrix(1.01915,0,0,0.84499316,-1.3687694,17.904535)" />
    <path
       style="fill:#800080;fill-opacity:1;stroke:#000000;stroke-width:0.264583;stroke-opacity:0.0471092"
       d="m 121.23345,121.98181 c -7.85772,2.6816 -15.71544,5.36321 -19.89376,6.85992 -4.178311,1.49671 -4.677212,1.80852 -5.176117,1.99561 -0.498906,0.18709 -0.997804,0.24945 -1.77734,0.46772 -0.779537,0.21827 -1.839707,0.59245 -3.118146,0.8419 -1.278438,0.24946 -2.775147,0.37418 -3.866497,0.53009 -1.091349,0.15591 -1.777343,0.34299 -2.494517,0.43654 -0.717173,0.0935 -1.465529,0.0935 -2.400972,0.0624 -0.935443,-0.0312 -2.057973,-0.0935 -2.743965,-0.12473 -0.685992,-0.0312 -0.935444,-0.0312 -1.309622,-0.12472 -0.374178,-0.0935 -0.87308,-0.28063 -1.340804,-0.40536 -0.467724,-0.12472 -0.90426,-0.18709 -1.12253,-0.28063 -0.218269,-0.0935 -0.218269,-0.21828 -0.218269,-0.343"
       id="path7"
       inkscape:path-effect="#path-effect7"
       inkscape:original-d="m 121.23345,121.98181 c -7.85772,2.68161 -15.71544,5.36321 -23.573166,8.04481 -0.498903,0.31182 -0.997807,0.62363 -1.496711,0.93545 -0.498901,0.0624 -0.997804,0.12472 -1.496708,0.18708 -1.060169,0.37418 -2.120339,0.74836 -3.180506,1.12254 -1.496711,0.12472 -2.993419,0.24945 -4.49013,0.37418 -0.68599,0.18708 -1.371983,0.37417 -2.057974,0.56126 -0.748355,0 -1.496711,0 -2.245064,0 -1.122531,-0.0624 -2.245063,-0.12473 -3.367598,-0.18709 -0.249449,0 -0.498901,0 -0.748352,0 -0.498904,-0.18709 -0.997808,-0.37417 -1.496711,-0.56126 -0.436539,-0.0624 -0.87308,-0.12473 -1.309619,-0.18709 0,-0.12473 0,-0.24946 0,-0.37418" />
    <path
       style="fill:#800080;fill-opacity:1;stroke:#000000;stroke-width:0.264583;stroke-opacity:0.0471092"
       d="m 74.46129,132.64587 c 0.810714,0.43653 1.621438,0.87307 2.089157,1.09134 0.46772,0.21827 0.592448,0.21827 0.904263,0.343 0.311815,0.12473 0.810717,0.37418 1.247257,0.4989 0.436539,0.12473 0.810716,0.12473 1.122531,0.18709 0.311814,0.0624 0.561264,0.18709 1.028987,0.343 0.467724,0.15591 1.153712,0.34299 1.683798,0.43654 0.530085,0.0935 0.904261,0.0935 1.590253,0.21827 0.685991,0.12472 1.6838,0.37418 2.400972,0.4989 0.717173,0.12473 1.153714,0.12473 1.496708,0.18709 0.342994,0.0624 0.592448,0.18709 1.060173,0.28064 0.467725,0.0935 1.153711,0.1559 1.902065,0.24944 0.748355,0.0936 1.559072,0.21827 2.089157,0.28064 0.530085,0.0624 0.779536,0.0624 1.153714,0.12472 0.374179,0.0624 0.87308,0.18709 1.434348,0.28064 0.561269,0.0935 1.184892,0.15591 1.559079,0.21827 0.374186,0.0624 0.498894,0.12472 0.904255,0.18708 0.40536,0.0624 1.09135,0.12473 1.559072,0.21827 0.467721,0.0935 0.717171,0.21827 1.028991,0.28064 0.31181,0.0624 0.68599,0.0624 1.43435,0.12472 0.74835,0.0624 1.87088,0.18709 2.8375,0.24946 0.96663,0.0624 1.77735,0.0624 2.55688,0.18709 0.77954,0.12472 1.52789,0.37417 2.43216,0.49889 0.90426,0.12473 1.96443,0.12473 2.77515,0.18709 0.81071,0.0624 1.37198,0.18709 2.27624,0.28064 0.90426,0.0935 2.15152,0.15591 3.11815,0.24945 0.96662,0.0935 1.65261,0.21827 2.43214,0.28064 0.77954,0.0624 1.65262,0.0624 2.40097,0.12472 0.74836,0.0624 1.37199,0.18709 1.93326,0.24945 0.56126,0.0624 1.06016,0.0624 1.34082,0.0936 0.28065,0.0312 0.34298,0.0935 0.8107,0.15589 0.46772,0.0624 1.3408,0.12473 2.6816,0.15591 1.3408,0.0312 3.14933,0.0312 4.2095,0.0935 1.06016,0.0624 1.37198,0.18709 1.68379,0.31182"
       id="path8"
       inkscape:path-effect="#path-effect8"
       inkscape:original-d="m 74.46129,132.64587 c 0.810717,0.43653 1.621435,0.87308 2.432153,1.30961 0.124724,0 0.249452,0 0.374176,0 0.498904,0.24946 0.997807,0.49891 1.496708,0.74836 0.374179,0 0.748356,0 1.122532,0 0.249452,0.12473 0.498904,0.24945 0.748356,0.37418 0.685993,0.18709 1.371983,0.37417 2.057976,0.56126 0.374177,0 0.748353,0 1.122532,0 0.997805,0.24945 1.995612,0.49891 2.993419,0.74836 0.436539,0 0.87308,0 1.309619,0 0.249452,0.12472 0.498904,0.24945 0.748355,0.37418 0.685994,0.0624 1.371984,0.12472 2.057975,0.18708 0.810717,0.12473 1.621435,0.24945 2.432153,0.37418 0.249452,0 0.498903,0 0.748355,0 0.498904,0.12473 0.997807,0.24945 1.496708,0.37418 0.623631,0.0624 1.247259,0.12472 1.870888,0.18709 0.124727,0.0624 0.249451,0.12472 0.374179,0.18708 0.68599,0.0624 1.371983,0.12473 2.057974,0.18709 0.249452,0.12473 0.498902,0.24946 0.748352,0.37418 0.37418,0 0.74836,0 1.12254,0 1.12253,0.12473 2.24506,0.24945 3.36759,0.37418 0.81072,0 1.62144,0 2.43215,0 0.74836,0.24945 1.49671,0.4989 2.24507,0.74835 1.06017,0 2.12034,0 3.1805,0 0.56127,0.12473 1.12254,0.24945 1.6838,0.37418 1.24726,0.0624 2.49452,0.12473 3.74178,0.18709 0.68599,0.12473 1.37198,0.24945 2.05797,0.37418 0.87308,0 1.74616,0 2.61924,0 0.62363,0.12472 1.24726,0.24945 1.87089,0.37417 0.4989,0 0.9978,0 1.49671,0 0.0624,0.0624 0.12472,0.12473 0.18709,0.18709 0.87308,0.0624 1.74616,0.12473 2.61924,0.18709 1.80852,0 3.61705,0 5.42557,0 0.31181,0.12473 0.62363,0.24945 0.93544,0.37418" />
    <path
       style="fill:#800080;fill-opacity:1;stroke:#000000;stroke-width:0.264583;stroke-opacity:0.0471092"
       d="m 121.98181,111.31776 c -0.68599,-0.0624 -1.37198,-0.12473 -1.80852,-0.24945 -0.43654,-0.12473 -0.62363,-0.31182 -0.93544,-0.53009 -0.31182,-0.21827 -0.74836,-0.46772 -1.49671,-0.81071 -0.74836,-0.343 -1.80853,-0.77954 -2.68161,-1.21608 -0.87308,-0.43654 -1.55907,-0.87308 -2.0268,-1.12254 -0.46773,-0.24945 -0.71717,-0.31181 -0.93544,-0.40536 -0.21827,-0.0935 -0.40536,-0.21827 -0.68599,-0.31181 -0.28064,-0.0935 -0.65481,-0.15591 -0.99781,-0.31181 -0.34299,-0.15591 -0.65481,-0.40536 -1.12253,-0.62363 -0.46772,-0.21827 -1.09135,-0.40536 -1.71498,-0.68599 -0.62362,-0.28063 -1.24726,-0.65482 -1.74616,-0.90427 -0.4989,-0.24945 -0.87308,-0.37417 -1.27844,-0.56126 -0.40536,-0.18709 -0.8419,-0.43654 -1.90207,-0.8419 -1.06016,-0.40535 -2.743961,-0.96662 -4.084763,-1.40316 -1.340802,-0.43655 -2.338608,-0.74836 -3.710592,-1.029 -1.371984,-0.28063 -3.118147,-0.530079 -4.521311,-0.810712 -1.403165,-0.280632 -2.463335,-0.592447 -3.398777,-0.779536 -0.935442,-0.187088 -1.74616,-0.24945 -2.338609,-0.342994 -0.592448,-0.09355 -0.966624,-0.218271 -1.621435,-0.342997 -0.654811,-0.124726 -1.590253,-0.249451 -2.432152,-0.43654 -0.841899,-0.187089 -1.590254,-0.43654 -2.338609,-0.685992"
       id="path9"
       inkscape:path-effect="#path-effect9"
       inkscape:original-d="m 121.98181,111.31776 c -0.68599,-0.0624 -1.37198,-0.12473 -2.05797,-0.18709 -0.18709,-0.18709 -0.37418,-0.37418 -0.56127,-0.56127 -0.43654,-0.24945 -0.87308,-0.4989 -1.30962,-0.74835 -1.06017,-0.43654 -2.12034,-0.87308 -3.18051,-1.30962 -0.68599,-0.43654 -1.37198,-0.87308 -2.05797,-1.30963 -0.24946,-0.0624 -0.49891,-0.12472 -0.74836,-0.18708 -0.18709,-0.12473 -0.37418,-0.24945 -0.56126,-0.37418 -0.37418,-0.0624 -0.74836,-0.12473 -1.12254,-0.18709 -0.31181,-0.24945 -0.62363,-0.4989 -0.93544,-0.74835 -0.62363,-0.18709 -1.24726,-0.37418 -1.87089,-0.56127 -0.62362,-0.37418 -1.24726,-0.74835 -1.87088,-1.12253 -0.37418,-0.12473 -0.74836,-0.24945 -1.12254,-0.37418 -0.43654,-0.24945 -0.87308,-0.4989 -1.30962,-0.74835 -1.68379,-0.56127 -3.367592,-1.12253 -5.05139,-1.6838 -0.997807,-0.31181 -1.995612,-0.62363 -2.993419,-0.93545 -1.74616,-0.24945 -3.492323,-0.498897 -5.238483,-0.748349 -1.060169,-0.311814 -2.120339,-0.62363 -3.180506,-0.935445 -0.810717,-0.06236 -1.621435,-0.124724 -2.432153,-0.187086 -0.374179,-0.124728 -0.748355,-0.249452 -1.122532,-0.374179 -0.935445,-0.124725 -1.870887,-0.249452 -2.806329,-0.374177 -0.748356,-0.249452 -1.496711,-0.498903 -2.245066,-0.748355" />
  </g>
</svg>
